<?xml version="1.0" encoding="UTF-8" standalone="no"?>
<!DOCTYPE svg PUBLIC "-//W3C//DTD SVG 1.1//EN" "http://www.w3.org/Graphics/SVG/1.1/DTD/svg11.dtd">
<svg width="100%" height="100%" viewBox="0 0 1000 1000" version="1.1" xmlns="http://www.w3.org/2000/svg" xmlns:xlink="http://www.w3.org/1999/xlink" xml:space="preserve" xmlns:serif="http://www.serif.com/" style="fill-rule:evenodd;clip-rule:evenodd;stroke-linecap:round;stroke-linejoin:round;stroke-miterlimit:1.5;">
    <g transform="matrix(1,0,0,1,-11339.2,-12208)">
        <g id="项目图像" transform="matrix(0.947705,0,0,0.947705,9349.48,12174.5)">
            <rect x="2099.53" y="35.257" width="1055.18" height="1055.18" style="fill:none;"/>
            <clipPath id="_clip1">
                <rect x="2099.53" y="35.257" width="1055.18" height="1055.18"/>
            </clipPath>
            <g clip-path="url(#_clip1)">
                <g transform="matrix(1.29351,0,0,1.29351,489.975,-1786.23)">
                    <rect x="1244.33" y="1408.17" width="815.748" height="815.748" style="fill:rgb(36,55,76);stroke:rgb(40,55,75);stroke-width:0.82px;"/>
                </g>
                <g transform="matrix(0.700663,0,0,0.926294,-7719.73,-1139.31)">
                    <path d="M15166.3,1511.74C15166.3,1502.68 15161.5,1493.99 15153.1,1487.58C15144.6,1481.17 15133.1,1477.57 15121.1,1477.57C14976.8,1477.57 14536.6,1477.57 14536.6,1477.57L14536.6,2197.63L15121.1,2197.63C15133.1,2197.63 15144.6,2194.03 15153.1,2187.62C15161.5,2181.21 15166.3,2172.52 15166.3,2163.46C15166.3,2042.15 15166.3,1633.05 15166.3,1511.74Z" style="fill:white;"/>
                </g>
                <g transform="matrix(0.68409,0,0,1.02614,-7575.9,-1326.76)">
                    <path d="M14678.5,2166.47L14558.5,2166.47C14550.5,2166.47 14542.9,2163.31 14537.3,2157.68C14531.7,2152.05 14528.5,2144.42 14528.5,2136.47C14528.5,2027.76 14528.5,1655.18 14528.5,1546.47C14528.5,1538.51 14531.7,1530.88 14537.3,1525.26C14542.9,1519.63 14550.5,1516.47 14558.5,1516.47C14679.9,1516.47 14678.5,1516.47 14678.5,1516.47L14678.5,2166.47Z" style="fill:rgb(50,147,255);"/>
                </g>
                <g transform="matrix(0.629211,0,0,0.845187,-6785.39,-1034.84)">
                    <rect x="14514.8" y="1656.62" width="130.467" height="48.564" style="fill:rgb(255,200,55);"/>
                </g>
                <g transform="matrix(0.629211,0,0,0.845187,-6785.39,-916.832)">
                    <rect x="14514.8" y="1656.62" width="130.467" height="48.564" style="fill:rgb(255,200,55);"/>
                </g>
                <g transform="matrix(0.629211,0,0,0.845187,-6785.39,-798.826)">
                    <rect x="14514.8" y="1656.62" width="130.467" height="48.564" style="fill:rgb(255,200,55);"/>
                </g>
                <g transform="matrix(0.629211,0,0,0.845187,-6785.39,-680.82)">
                    <rect x="14514.8" y="1656.62" width="130.467" height="48.564" style="fill:rgb(255,200,55);"/>
                </g>
                <g>
                    <g transform="matrix(0.314606,0,0,0.845187,-2065.03,-1034.84)">
                        <rect x="14514.8" y="1656.62" width="130.467" height="48.564" style="fill:rgb(0,227,252);"/>
                    </g>
                    <g transform="matrix(0.314606,0,0,0.845187,-2065.03,-916.832)">
                        <rect x="14514.8" y="1656.62" width="130.467" height="48.564" style="fill:rgb(0,227,252);"/>
                    </g>
                    <g transform="matrix(0.314606,0,0,0.845187,-2065.03,-798.826)">
                        <rect x="14514.8" y="1656.62" width="130.467" height="48.564" style="fill:rgb(0,227,252);"/>
                    </g>
                    <g transform="matrix(0.314606,0,0,0.845187,-2065.03,-680.82)">
                        <rect x="14514.8" y="1656.62" width="130.467" height="48.564" style="fill:rgb(0,227,252);"/>
                    </g>
                    <g transform="matrix(2.20224,0,0,0.845187,-29386.7,-1034.84)">
                        <rect x="14514.8" y="1656.62" width="130.467" height="48.564" style="fill:rgb(0,227,252);"/>
                    </g>
                    <g transform="matrix(2.20224,0,0,0.845187,-29386.7,-916.832)">
                        <rect x="14514.8" y="1656.62" width="130.467" height="48.564" style="fill:rgb(0,227,252);"/>
                    </g>
                    <g transform="matrix(2.20224,0,0,0.845187,-29386.7,-798.826)">
                        <rect x="14514.8" y="1656.62" width="130.467" height="48.564" style="fill:rgb(0,227,252);"/>
                    </g>
                    <g transform="matrix(2.20224,0,0,0.845187,-29386.7,-680.82)">
                        <rect x="14514.8" y="1656.62" width="130.467" height="48.564" style="fill:rgb(0,227,252);"/>
                    </g>
                </g>
            </g>
        </g>
    </g>
</svg>
